<svg viewBox="0 0 124 173" version="1.1" 
    xmlns="http://www.w3.org/2000/svg" 
    xmlns:xlink="http://www.w3.org/1999/xlink">
    <g id="Symbols" stroke="none" stroke-width="1" fill="none" fill-rule="evenodd">
        <g id="mah-face-outline-bright" transform="translate(1.000000, 1.000000)">
            <g id="face">
                <path d="M118.420323,57.0024135 C118.420323,61.6171346 118.279753,66.1672456 118.006579,70.6370685 C121.095588,71.6199386 122.731898,78.8971777 121.6827,87.4102065 C120.585293,96.3143214 116.96553,103.198571 113.597729,102.786607 C113.56977,102.783187 113.541916,102.779275 113.514169,102.774874 C104.587649,142.376947 84.4330595,170 61,170 C37.5669405,170 17.4123515,142.376947 8.48583144,102.774874 C8.45808385,102.779275 8.43023019,102.783187 8.40227127,102.786607 C5.03446987,103.198571 1.41470687,96.3143214 0.317299785,87.4102065 C-0.73189828,78.8971777 0.90441223,71.6199386 3.99342111,70.6370685 C3.72024703,66.1672456 3.57967659,61.6171346 3.57967659,57.0024135 C3.6750927,56.6680676 3.59227464,56.3283923 3.57967659,55.9858728 C3.56357646,55.5481382 3.59829542,55.1052193 3.57967659,54.6570482 C3.52824099,53.4189497 3.53233959,52.1440263 3.57967659,50.8449278 C3.60805951,50.0659975 3.6376095,49.2807864 3.67458352,48.4944682 C3.6683145,47.7195592 3.68104563,46.932665 3.7099576,46.136695 C3.84218557,42.4963518 3.99982346,38.7188256 4.81954658,35.3322274 C5.21447152,33.7006373 5.7630734,32.1597857 6.53654895,30.768729 C13.3960549,18.432254 42.8910594,6.59510214 47.3069665,5.11563648 C49.5144008,4.37607761 48.0315207,5.73163944 44.2543502,9.67303918 C43.8187932,10.1275339 43.2433429,10.7918428 42.5279992,11.6659658 C44.7907967,10.7348341 46.4897515,10.0995424 47.3151946,9.82386925 C48.9719377,9.27056686 48.5565339,9.88996911 46.6554451,11.8875707 C65.4368977,3.96332486 76.2793284,0.00120193104 79.1827374,0.00120193104 C80.8721104,0.00120193104 81.0213363,-0.0633278599 80.0734708,0.753262953 C78.2870266,2.29229338 76.1855217,3.47493952 74.3487699,5.11563648 C74.0020489,5.42534848 73.6136921,5.78878199 73.1836994,6.205937 C76.2225823,5.2082688 78.2587611,4.7094347 79.2922359,4.7094347 C80.9869762,4.7094347 81.1366762,4.64490491 80.1857992,5.46149573 C78.7191825,6.72099182 77.0408899,7.74180694 75.4697192,8.97032174 C81.7749337,7.12415074 86.3468518,5.84706215 89.1854734,5.13905597 C105.254516,1.13113128 111.781004,0.667508256 108.764936,2.80654034 C106.867984,4.15188195 105.177731,5.46289 103.694177,6.7395645 C109.070474,5.86838009 110.828555,6.1997195 108.968418,7.51477311 C107.668109,8.43404759 106.464615,9.33729168 105.357936,10.2245054 C115.510651,9.00326437 119.786975,9.26716964 118.186907,11.0162212 C117.064453,12.2431882 116.220582,13.2994054 115.655293,14.1848728 C118.388435,14.2417029 119.310112,14.7548967 118.420323,15.7244539 C116.842201,17.4440537 115.813013,18.8282642 115.33276,19.8770855 L117.820456,43.0131803 L117.872774,46.0532887 L118.052708,47.7214131 L118.118581,51.5370431 L118.186907,52.2941807 L118.131652,52.2941807 L118.164067,54.1717905 L118.420323,57.0024135 Z" id="head" stroke="#00FFFF"></path>
                <path d="M61.5,143 L66.070225,150.47855 C66.3582139,150.949805 66.2096477,151.565293 65.7383932,151.853282 C65.5813853,151.949231 65.4009479,152 65.2169432,152 L57.7830568,152 C57.2307721,152 56.7830568,151.552285 56.7830568,151 C56.7830568,150.815995 56.8338257,150.635558 56.929775,150.47855 L61.5,143 Z" id="toast" fill="#00FFFF" transform="translate(61.500000, 147.500000) scale(1, -1) translate(-61.500000, -147.500000) "></path>
                <path d="M69.8834973,165.005044 C70.1691688,165.133114 70.4552178,165.264274 70.7416443,165.398525 C74.1110736,166.977804 76.9712168,168.610582 79.3220738,170.296858 L61,173 L42.3922165,170.293563 C45.3401628,168.056035 47.9091143,166.424046 50.0990709,165.397595 C50.8238836,165.057869 51.6991742,164.704463 52.7249427,164.337375 L52.7249419,164.337373 C58.3161796,162.336458 64.4646489,162.575706 69.8834973,165.005044 Z" id="chin-scruff" fill="#00FFFF" transform="translate(60.857145, 167.471781) scale(1, -1) translate(-60.857145, -167.471781) "></path>
                <path d="M54.7021587,121.404928 L36.0636891,127.220157 L55.1218552,124.880383 C55.623251,124.818827 56,124.392996 56,123.887835 L56,122.359544 C56,121.807259 55.5522847,121.359544 55,121.359544 C54.8989973,121.359544 54.7985774,121.374846 54.7021587,121.404928 Z" id="right-stache" fill="#00FFFF"></path>
                <path d="M85.6384695,121.404928 L67,127.220157 L86.0581661,124.880383 C86.5595618,124.818827 86.9363109,124.392996 86.9363109,123.887835 L86.9363109,122.359544 C86.9363109,121.807259 86.4885956,121.359544 85.9363109,121.359544 C85.8353081,121.359544 85.7348883,121.374846 85.6384695,121.404928 Z" id="left-stache" fill="#00FFFF" transform="translate(76.968155, 124.110079) scale(-1, 1) translate(-76.968155, -124.110079) "></path>
            </g>
        </g>
    </g>
</svg>