<svg viewBox="0 0 124 174" version="1.1" 
    xmlns="http://www.w3.org/2000/svg" 
    xmlns:xlink="http://www.w3.org/1999/xlink">
    <g id="Symbols" stroke="none" stroke-width="1" fill="none" fill-rule="evenodd">
        <g id="mah-face-outline-bright" transform="translate(1.000000, 1.000000)">
            <g id="face">
                <path d="M118.420323,57.0024135 C118.420323,61.6171346 118.279753,66.1672456 118.006579,70.6370685 C121.095588,71.6199386 122.731898,78.8971777 121.6827,87.4102065 C120.585293,96.3143214 116.96553,103.198571 113.597729,102.786607 C113.56977,102.783187 113.541916,102.779275 113.514169,102.774874 C104.587649,142.376947 84.4330595,170 61,170 C37.5669405,170 17.4123515,142.376947 8.48583144,102.774874 C8.45808385,102.779275 8.43023019,102.783187 8.40227127,102.786607 C5.03446987,103.198571 1.41470687,96.3143214 0.317299785,87.4102065 C-0.73189828,78.8971777 0.90441223,71.6199386 3.99342111,70.6370685 C3.72024703,66.1672456 3.57967659,61.6171346 3.57967659,57.0024135 C3.6750927,56.6680676 3.59227464,56.3283923 3.57967659,55.9858728 C3.56357646,55.5481382 3.59829542,55.1052193 3.57967659,54.6570482 C3.52824099,53.4189497 3.53233959,52.1440263 3.57967659,50.8449278 C3.60805951,50.0659975 3.6376095,49.2807864 3.67458352,48.4944682 C3.6683145,47.7195592 3.68104563,46.932665 3.7099576,46.136695 C3.84218557,42.4963518 3.99982346,38.7188256 4.81954658,35.3322274 C5.21447152,33.7006373 5.7630734,32.1597857 6.53654895,30.768729 C13.3960549,18.432254 42.8910594,6.59510214 47.3069665,5.11563648 C49.5144008,4.37607761 48.0315207,5.73163944 44.2543502,9.67303918 C43.8187932,10.1275339 43.2433429,10.7918428 42.5279992,11.6659658 C44.7907967,10.7348341 46.4897515,10.0995424 47.3151946,9.82386925 C48.9719377,9.27056686 48.5565339,9.88996911 46.6554451,11.8875707 C65.4368977,3.96332486 76.2793284,0.00120193104 79.1827374,0.00120193104 C80.8721104,0.00120193104 81.0213363,-0.0633278599 80.0734708,0.753262953 C78.2870266,2.29229338 76.1855217,3.47493952 74.3487699,5.11563648 C74.0020489,5.42534848 73.6136921,5.78878199 73.1836994,6.205937 C76.2225823,5.2082688 78.2587611,4.7094347 79.2922359,4.7094347 C80.9869762,4.7094347 81.1366762,4.64490491 80.1857992,5.46149573 C78.7191825,6.72099182 77.0408899,7.74180694 75.4697192,8.97032174 C81.7749337,7.12415074 86.3468518,5.84706215 89.1854734,5.13905597 C105.254516,1.13113128 111.781004,0.667508256 108.764936,2.80654034 C106.867984,4.15188195 105.177731,5.46289 103.694177,6.7395645 C109.070474,5.86838009 110.828555,6.1997195 108.968418,7.51477311 C107.668109,8.43404759 106.464615,9.33729168 105.357936,10.2245054 C115.510651,9.00326437 119.786975,9.26716964 118.186907,11.0162212 C117.064453,12.2431882 116.220582,13.2994054 115.655293,14.1848728 C118.388435,14.2417029 119.310112,14.7548967 118.420323,15.7244539 C116.842201,17.4440537 115.813013,18.8282642 115.33276,19.8770855 L117.820456,43.0131803 L117.872774,46.0532887 L118.052708,47.7214131 L118.118581,51.5370431 L118.186907,52.2941807 L118.131652,52.2941807 L118.164067,54.1717905 L118.420323,57.0024135 Z" id="head" stroke="#00FFFF"></path>
                <path d="M61,148 L66.7447129,155.386059 C67.0837829,155.822007 67.0052484,156.450282 66.5693013,156.789352 C66.3937684,156.925878 66.1777365,157 65.9553606,157 L56.0446394,157 C55.4923546,157 55.0446394,156.552285 55.0446394,156 C55.0446394,155.777624 55.1187616,155.561592 55.2552871,155.386059 L61,148 Z" id="toast" fill="#00FFFF" transform="translate(61.000000, 152.500000) scale(1, -1) translate(-61.000000, -152.500000) "></path>
                <path d="M69.5341824,168.019977 C69.8395577,168.155776 70.1453643,168.295089 70.4516025,168.437917 C73.8210318,170.009405 76.6704977,171.642726 79,173.337879 L42.7099582,173.337879 C45.2527155,171.092008 47.6190725,169.458379 49.8090291,168.436992 C50.5510845,168.0909 51.4508624,167.73054 52.5083629,167.35591 L52.5083631,167.355911 C58.0593649,165.389416 64.1532116,165.627097 69.5341824,168.019977 Z" id="chin-scruff" fill="#00FFFF" transform="translate(60.854979, 169.168940) scale(1, -1) translate(-60.854979, -169.168940) "></path>
                <path d="M54.1529962,119.162798 L40.7364184,121.944572 C40.2351094,122.048513 39.9129787,122.539165 40.0169194,123.040474 C40.1119283,123.498704 40.5335733,123.814262 41,123.776208 L55.0813159,122.627368 C55.6003466,122.585023 56,122.151435 56,121.63068 L56,120.66613 C56,119.818204 55.3126205,119.130825 54.4646948,119.130825 C54.3599768,119.130825 54.2555335,119.141538 54.1529962,119.162798 Z" id="right-stache" fill="#00FFFF"></path>
                <path d="M94.1529962,119.162798 L80.7364184,121.944572 C80.2351094,122.048513 79.9129787,122.539165 80.0169194,123.040474 C80.1119283,123.498704 80.5335733,123.814262 81,123.776208 L94.1626319,122.70232 C95.2006933,122.617629 96,121.750454 96,120.708943 L96,120.66613 C96,119.818204 95.3126205,119.130825 94.4646948,119.130825 C94.3599768,119.130825 94.2555335,119.141538 94.1529962,119.162798 Z" id="left-stache" fill="#00FFFF" transform="translate(81.000000, 122.000000) scale(-1, 1) translate(-81.000000, -122.000000) "></path>
            </g>
        </g>
    </g>
</svg>