<svg viewBox="0 0 31 151" version="1.1" 
    xmlns="http://www.w3.org/2000/svg" 
    xmlns:xlink="http://www.w3.org/1999/xlink">
    <g id="Symbols" stroke="none" stroke-width="1" fill="none" fill-rule="evenodd">
        <g id="golf-club-lines" transform="translate(-21.000000, -2.000000)">
            <g id="club" transform="translate(37.349639, 77.736378) rotate(-9.000000) translate(-37.349639, -77.736378) translate(11.349639, 3.736378)">
                <g id="shaft" transform="translate(0.320195, 0.909483)">
                    <path d="M24.9727824,139.782146 L24.9870515,139.827452 C23.742034,140.6633 23.7878934,140.605922 23.6792098,140.674077 C22.4141318,141.467396 21.3025696,142.107799 20.2022686,142.628381 C17.5807121,143.868709 15.2464976,144.805531 13.3214897,145.404919 C10.1580741,146.389909 7.58160822,146.416457 5.59209208,145.484564 C5.04635004,145.238743 4.66773947,145.051051 4.45626035,144.92149 C3.77760335,144.505714 3.3532006,144.094385 3.08132388,143.820237 C1.754706,142.482539 1.34260381,141.105513 1.0380277,140.315403 C0.264203699,138.308006 -0.586879268,134.957364 0.964900414,133.331429 C4.17345127,129.969699 21.2973009,135.360526 23.4555959,135.68331 L24.8011469,127.219518 L24.7860958,127.217469 L36.7018878,52.1573958 L38.6504919,52.4660244 L38.6152697,52.6884085 L40.4755247,53.0191045 L27.8297419,123.86407 L24.9727824,139.782146 Z" id="shaft-and-face" stroke="#00FFFF" stroke-width="0.5"></path>
                    <path d="M18.0479878,24.4957971 L68.0436165,23.7460127 C68.5958392,23.737731 69.0502177,24.1786823 69.0584994,24.7309049 C69.0586872,24.7434286 69.0586397,24.7559547 69.058357,24.7684766 L68.95605,29.2989151 C68.9436659,29.8473189 68.4918135,30.2833792 67.9433161,30.2762543 L18.0456232,29.6280901 C17.4979069,29.6209753 17.0578486,29.174541 17.058613,28.626779 L17.0629841,25.4942892 C17.0637458,24.9483954 17.5021548,24.5039829 18.0479878,24.4957971 Z" id="grip" stroke="#BF6EE0" transform="translate(43.058612, 27.011117) rotate(-80.000000) translate(-43.058612, -27.011117) "></path>
                </g>
                <g id="face" transform="translate(4.905442, 134.325504)" stroke="#00FFFF" stroke-linecap="square" stroke-width="0.2">
                    <path d="M5.56696979,0.966855007 L0.460586812,0.966855007" id="Line-Copy-2"></path>
                    <path d="M14.9787234,2.5625 L0.617021277,2.5625" id="Line-Copy-4"></path>
                    <path d="M15.1351579,4.15814499 L0.773455742,4.15814499" id="Line-Copy-6"></path>
                    <path d="M15.2915923,5.75378999 L0.929890207,5.75378999" id="Line-Copy-8"></path>
                    <path d="M15.0428474,7.32430351 L1.08632467,7.34943498" id="Line-Copy-10"></path>
                    <path d="M13.338222,9.06715648 L1.69844217,9.15932158" id="Line-Copy-11" transform="translate(7.518332, 9.113239) rotate(0.000000) translate(-7.518332, -9.113239) "></path>
                </g>
            </g>
        </g>
    </g>
</svg>