<svg viewBox="0 0 122 104" version="1.1" 
    xmlns="http://www.w3.org/2000/svg" 
    xmlns:xlink="http://www.w3.org/1999/xlink">
    <g id="Symbols" stroke="none" stroke-width="1" fill="none" fill-rule="evenodd">
        <g id="golf-club-lines" transform="translate(-4.000000, -27.000000)">
            <g id="club" transform="translate(64.000000, 76.000000) rotate(35.000000) translate(-64.000000, -76.000000) translate(38.000000, 2.000000)">
                <g id="shaft" transform="translate(0.320195, 0.909483)">
                    <path d="M24.9727824,139.782146 L24.9870515,139.827452 C23.742034,140.6633 23.7878934,140.605922 23.6792098,140.674077 C22.4141318,141.467396 21.3025696,142.107799 20.2022686,142.628381 C17.5807121,143.868709 15.2464976,144.805531 13.3214897,145.404919 C10.1580741,146.389909 7.58160822,146.416457 5.59209208,145.484564 C5.04635004,145.238743 4.66773947,145.051051 4.45626035,144.92149 C3.77760335,144.505714 3.3532006,144.094385 3.08132388,143.820237 C1.754706,142.482539 1.34260381,141.105513 1.0380277,140.315403 C0.264203699,138.308006 -0.586879268,134.957364 0.964900414,133.331429 C4.17240232,129.970798 21.2861061,135.357002 23.4534744,135.682991 L24.7941086,127.21856 L24.7860958,127.217469 L28.3400963,104.830075 L36.6796699,52.1760795 L36.6984496,52.1790539 L36.7018878,52.1573958 L38.6504919,52.4660244 L38.6470614,52.4876837 L38.7939568,52.5109496 L40.5615241,52.7909049 L27.8297419,123.86407 L24.9727824,139.782146 Z" id="shaft-and-face" stroke="#00FFFF"></path>
                    <path d="M18.0792747,24.2982594 L68.0749034,23.548475 C68.6271261,23.5401933 69.0815046,23.9811446 69.0897863,24.5333673 C69.0899741,24.5458909 69.0899266,24.5584171 69.0896439,24.570939 L68.9873369,29.1013774 C68.9749528,29.6497812 68.5231004,30.0858416 67.974603,30.0787167 L18.0769101,29.4305524 C17.5291938,29.4234376 17.0891355,28.9770033 17.0898999,28.4292413 L17.094271,25.2967515 C17.0950327,24.7508577 17.5334417,24.3064452 18.0792747,24.2982594 Z" id="grip" stroke="#BF6EE0" transform="translate(43.089899, 26.813579) rotate(-80.000000) translate(-43.089899, -26.813579) "></path>
                </g>
                <g id="face" transform="translate(4.905442, 134.325504)" stroke="#00FFFF" stroke-linecap="square" stroke-width="0.2">
                    <path d="M5.56696979,0.966855007 L0.460586812,0.966855007" id="Line-Copy-2"></path>
                    <path d="M14.9787234,2.5625 L0.617021277,2.5625" id="Line-Copy-4"></path>
                    <path d="M15.1351579,4.15814499 L0.773455742,4.15814499" id="Line-Copy-6"></path>
                    <path d="M15.2915923,5.75378999 L0.929890207,5.75378999" id="Line-Copy-8"></path>
                    <path d="M15.0428474,7.32430351 L1.08632467,7.34943498" id="Line-Copy-10"></path>
                    <path d="M13.338222,9.06715648 L1.69844217,9.15932158" id="Line-Copy-11" transform="translate(7.518332, 9.113239) rotate(0.000000) translate(-7.518332, -9.113239) "></path>
                </g>
            </g>
        </g>
    </g>
</svg>