<svg viewBox="0 0 95 70" version="1.1" 
    xmlns="http://www.w3.org/2000/svg" 
    xmlns:xlink="http://www.w3.org/1999/xlink">
    <g id="controller" transform="translate(1.000000, 1.000000)" stroke-width="1" fill="none">
        <path d="M66.2874311,43.8947883 L27.2368859,43.8947883 C22.2394587,56.6709241 18.2128288,67.8890324 15.191758,67.9668828 C14.2556241,67.9910061 5.80955072,68.5338915 5.06624514,66.9454788 C0.257426912,56.6692365 -1.17021236,40.3512449 0.964022115,23.2851248 C1.69936178,17.4050797 4.86546535,12.6352384 9.0950052,9.13663992 C9.87864288,6.96194753 10.5950288,5.2301349 11.1050312,4.19079197 C12.1048549,2.15323376 19.0638253,0.758030584 28.2411171,0.00518242918 C29.8715106,1.84161744 37.1580984,3.22656507 45.9003095,3.22656507 C54.6507423,3.22656507 61.9428126,1.83901127 63.5640869,4.16333634e-15 C72.8339345,0.751618561 79.9364781,2.14854922 81.1050312,4.19079197 C81.6037109,5.06231839 82.1784957,6.42074973 82.7713957,8.11892518 C87.8821807,11.6973464 91.8603631,16.9475518 92.6964073,23.6328674 C94.8306418,40.6989875 93.4030025,57.0169791 88.5941843,67.2932213 C87.8508787,68.8816341 79.4048054,68.3387487 78.4686715,68.3146253 C75.420221,68.2360695 71.3479024,56.8144149 66.2874311,43.8947883 Z" id="frame" stroke="#BF6EE0"></path>
        <g id="d-pad" transform="translate(16.403118, 16.000000)" stroke="#00FFFF">
            <path d="M7.59688249,7.15384615 L7.59688249,0.769230769 L9.59688249,0.769230769 L9.59688249,7.15384615 L16.5968825,7.15384615 L16.5968825,9.15384615 L9.59688249,9.15384615 L9.59688249,16.7692308 L7.59688249,16.7692308 L7.59688249,9.15384615 L0.596882486,9.15384615 L0.596882486,7.15384615 L7.59688249,7.15384615 Z" id="cross"></path>
        </g>
        <g id="buttons" transform="translate(56.403118, 15.000000)" stroke="#00D400">
            <circle id="left-button" cx="3" cy="9" r="3"></circle>
            <circle id="bottom-button" cx="9" cy="15" r="3"></circle>
            <circle id="right-button" cx="15" cy="9" r="3"></circle>
            <circle id="top-button" cx="9" cy="3" r="3"></circle>
        </g>
    </g>
</svg>